<svg width="1516" height="1047" viewBox="0 0 1516 1047" fill="none" xmlns="http://www.w3.org/2000/svg">
<path d="M1271.45 398.106C1285.9 397.985 1300.26 401.23 1311.42 410.28C1337.38 431.355 1345.13 457.596 1340.99 484.456C1336.99 510.43 1322.03 536.412 1304.14 559.234C1286.1 582.236 1264.31 602.998 1245.26 618.606C1235.71 626.423 1226.76 633.029 1219.19 638.031C1212.11 642.702 1205.53 646.459 1200.61 648.196L1200.14 648.358C1175.14 656.69 1157.45 651.249 1150.26 642.619L1150.23 642.587L1150.2 642.555C1145.92 637.326 1140.12 626.738 1144.53 615.452C1149.12 603.721 1162.18 597.567 1180.63 595.47C1186.79 594.771 1194.88 591.096 1204.53 584.182C1213.98 577.414 1223.97 568.234 1233.78 557.921C1253.24 537.473 1271.17 513.465 1281.79 497.511C1291.18 480.023 1291.2 468.654 1288.61 462.092C1286.11 455.752 1280.04 451.079 1270.48 449.396C1250.81 445.93 1222.42 456.632 1209.29 482.465C1180.43 546.684 1119.89 591.366 1068.69 615.932C1043 628.257 1018.89 635.9 1001.31 638.307C992.846 639.466 984.418 639.634 977.939 637.373C974.556 636.193 970.574 633.948 968.084 629.679C965.455 625.168 965.593 620.319 966.813 616.329L967.21 615.007C975.366 587.427 971.243 571.592 970.876 559.007C970.636 550.75 978.441 545.839 985.215 547.564C1028.31 558.544 1065.69 546.635 1095.42 526.705C1125.36 506.631 1147.01 478.722 1157.62 459.377C1163.68 448.311 1173.98 437.985 1185.87 429.237C1197.87 420.408 1212.11 412.738 1226.8 407.228C1241.44 401.732 1256.95 398.229 1271.45 398.106Z" fill="#BB7F78" stroke="#B4665C" stroke-width="21"/>
<path d="M616.205 711.848C643.926 613.568 650.909 567.577 659.332 509.422C659.378 509.107 659.272 508.787 659.046 508.563C616.569 466.602 585.164 409.434 495.432 409.434C410.423 409.434 398.079 365.787 389.442 355.408C388.903 354.76 388.017 355.238 388.063 356.081C400.401 581.545 543.675 687.339 614.945 712.545C615.487 712.737 616.049 712.402 616.205 711.848Z" fill="#4D8523" stroke="#385B1B" stroke-width="34"/>
<path d="M591.804 20.7371C606.388 13.3876 622.527 11.7031 638.709 15.2742C670.665 22.3263 701.841 49.4366 725.747 92.1365C727.74 95.6979 727.947 99.9888 726.302 103.724C724.658 107.46 721.354 110.207 717.381 111.141C701.214 114.945 676.926 126.276 658.349 147.575C640.161 168.428 626.901 199.409 632.808 244.265C633.494 249.476 630.975 254.587 626.425 257.218C621.876 259.848 616.19 259.479 612.017 256.285L619.919 245.963L613.001 254.992C612.049 256.232 612.011 256.277 612.007 256.277C612.005 256.275 611.999 256.272 611.995 256.268C611.986 256.261 611.975 256.253 611.963 256.244C611.939 256.225 611.908 256.201 611.872 256.173C611.798 256.115 611.699 256.038 611.577 255.942C611.332 255.75 610.993 255.479 610.566 255.133C609.712 254.44 608.508 253.44 607.019 252.15C604.043 249.572 599.914 245.817 595.155 240.996C585.67 231.387 573.511 217.371 563.021 199.832C541.957 164.612 527.17 114.115 555.835 57.6111L556.02 57.2605C565.157 40.5326 577.301 28.0459 591.804 20.7371Z" fill="#E7C47C" stroke="#5F3A11" stroke-width="26" stroke-linejoin="round"/>
<path d="M920.492 20.2664C905.908 12.9169 889.769 11.2324 873.586 14.8035C841.631 21.8556 810.455 48.9659 786.549 91.6658C784.556 95.2272 784.349 99.5181 785.994 103.254C787.638 106.989 790.942 109.736 794.915 110.671C811.082 114.475 835.37 125.806 853.947 147.104C872.135 167.957 885.395 198.938 879.488 243.795C878.802 249.005 881.321 254.117 885.871 256.747C890.42 259.377 896.106 259.009 900.279 255.814L892.376 245.492L899.294 254.521C900.247 255.762 900.285 255.807 900.289 255.806C900.291 255.805 900.297 255.801 900.301 255.798C900.31 255.791 900.321 255.782 900.333 255.773C900.357 255.754 900.388 255.73 900.424 255.702C900.498 255.645 900.597 255.568 900.719 255.471C900.964 255.279 901.303 255.008 901.73 254.662C902.584 253.969 903.788 252.97 905.277 251.679C908.253 249.101 912.382 245.346 917.141 240.525C926.626 230.917 938.785 216.9 949.275 199.361C970.339 164.142 985.126 113.644 956.46 57.1404L956.276 56.7898C947.139 40.0619 934.995 27.5752 920.492 20.2664Z" fill="#E7C47C" stroke="#5F3A11" stroke-width="26" stroke-linejoin="round"/>
<ellipse cx="794.508" cy="291.999" rx="9.5" ry="9" fill="#E7C47C"/>
<path d="M638.796 221.855C638.796 221.852 638.795 221.849 638.795 221.845C638.793 221.828 638.791 221.81 638.789 221.793C638.033 214.315 638.825 206.712 641.059 199.552C652.263 163.635 666.649 142.586 686.033 129.993L686.053 129.98C702.148 119.53 721.103 115.291 743.039 112.528C752.316 111.36 761.711 111.36 770.988 112.528L772.74 112.754C776.811 113.286 780.76 113.873 784.587 114.541L784.586 114.542L784.705 114.561L785.364 114.677C790.854 115.656 796.127 116.813 801.185 118.236L802.198 118.526L803.433 118.891C803.842 119.015 804.25 119.139 804.655 119.266L806.093 119.725C806.57 119.881 807.047 120.041 807.521 120.203L808.63 120.588C808.998 120.718 809.366 120.85 809.732 120.984L810.996 121.456L810.995 121.457C811.581 121.679 812.164 121.907 812.745 122.14H812.746C814.3 122.764 815.844 123.428 817.375 124.138C817.931 124.396 818.482 124.659 819.029 124.926C822.111 126.433 825.098 128.113 827.99 129.992C847.375 142.584 861.762 163.634 872.967 199.552C875.207 206.733 875.998 214.36 875.23 221.859C873.543 238.351 870.452 252.252 864.604 265.003C858.928 277.379 850.758 288.449 839.131 299.695L837.995 300.784C837.933 300.843 837.878 300.895 837.848 300.922C837.824 300.944 837.826 300.943 837.811 300.957C837.806 300.96 837.804 300.964 837.802 300.965C837.801 300.966 837.799 300.966 837.799 300.966L837.8 300.967C836.875 301.837 835.922 302.665 834.947 303.453H834.946L834.406 303.884C833.725 304.42 833.031 304.936 832.328 305.433V305.434C831.752 305.841 831.17 306.235 830.582 306.616L830.581 306.615C830.244 306.833 829.906 307.048 829.565 307.258L829.564 307.259C828.636 307.831 827.693 308.373 826.735 308.885L826.736 308.886C826.435 309.048 826.137 309.204 825.841 309.355L825.84 309.356C822.011 311.317 817.973 312.817 813.826 313.886C810.441 314.759 806.844 313.891 804.23 311.57L794.29 302.741C794.28 302.732 794.269 302.722 794.259 302.713L792.535 301.17L776.994 313.642C775.13 315.138 772.812 315.953 770.422 315.953H742.7C740.658 315.953 738.661 315.358 736.952 314.24L725.999 307.074L716.712 313.681C714.624 315.167 712.064 315.838 709.516 315.567C697.257 314.264 685.279 309.57 676.03 300.784C663.797 289.163 655.28 277.778 649.421 265.003C643.588 252.283 640.498 238.419 638.808 221.98L638.807 221.97C638.802 221.926 638.799 221.888 638.796 221.86L638.797 221.859L638.796 221.855ZM638.795 221.845V221.848C638.795 221.85 638.796 221.853 638.796 221.855M638.795 221.845V221.843C638.795 221.847 638.795 221.851 638.796 221.855" fill="#E7C47C" stroke="#5F3A11" stroke-width="21" stroke-linejoin="round"/>
<path d="M756.89 388.936C875.036 388.936 973.856 472.2 973.856 578.406C973.856 684.612 875.036 767.877 756.89 767.877C638.744 767.877 539.924 684.612 539.924 578.406C539.924 472.2 638.744 388.936 756.89 388.936Z" fill="#575D8A" stroke="#23263B" stroke-width="24"/>
<mask id="path-8-outside-1_33_2" maskUnits="userSpaceOnUse" x="543.921" y="281.998" width="415" height="168" fill="black">
<rect fill="white" x="543.921" y="281.998" width="415" height="168"/>
<path d="M793.506 305C796.018 305.051 798.231 306.662 799.053 309.036C801.558 316.272 802.785 320.643 805.559 324.889C808.105 328.785 812.196 332.829 820.725 337.909C827.591 339.681 833.171 339.202 839.362 336.74C846.159 334.036 853.704 328.949 864.324 321.158C866.36 319.664 869.115 319.606 871.213 321.012C873.311 322.419 874.303 324.99 873.694 327.442C871.445 336.492 870.745 341.68 871.548 345.204C872.132 347.763 873.703 350.187 879.332 352.792C886.962 354.648 893.268 355.078 900.299 354.144C907.655 353.167 916.026 350.677 927.795 346.359C930.59 345.334 933.714 346.513 935.134 349.129C936.554 351.746 935.841 355.009 933.457 356.793C919.242 367.437 910.335 375.46 905.392 384.183C900.662 392.532 899.223 402.186 901.779 416.957C901.901 417.662 901.892 418.375 901.765 419.064C864.76 387.482 813.955 367.989 757.89 367.989C697.431 367.989 643.088 390.656 605.572 426.709C605.303 426.182 605.108 425.608 605.002 424.999C603.28 415.015 600.096 408.006 594.858 401.485C589.444 394.745 581.696 388.336 570.316 379.783C568.301 378.268 567.448 375.655 568.18 373.244C568.913 370.832 571.076 369.134 573.593 368.997C592.894 367.941 600.82 366.563 608.771 362.61C614.063 356.995 616.894 352.716 618.525 348.489C620.234 344.059 620.831 339.176 620.913 331.926C620.941 329.461 622.475 327.264 624.78 326.387C627.084 325.511 629.691 326.134 631.35 327.958C639.536 336.959 646.387 341.55 653.953 343.931C661.676 346.362 670.719 346.684 683.812 346.012C694.969 344.351 701.555 341.588 706.491 337.581C711.609 333.425 715.544 327.48 720.624 318.131L720.82 317.798C721.846 316.169 723.6 315.123 725.538 315.007C727.605 314.884 729.59 315.836 730.789 317.525C736.453 325.509 740.324 330.584 744.55 333.727C748.255 336.482 752.512 337.928 759.485 337.537C769.152 335.149 774.287 331.987 777.848 327.999C781.704 323.68 784.239 317.878 787.8 308.805L787.89 308.588C788.861 306.374 791.074 304.95 793.506 305Z"/>
</mask>
<path d="M793.506 305C796.018 305.051 798.231 306.662 799.053 309.036C801.558 316.272 802.785 320.643 805.559 324.889C808.105 328.785 812.196 332.829 820.725 337.909C827.591 339.681 833.171 339.202 839.362 336.74C846.159 334.036 853.704 328.949 864.324 321.158C866.36 319.664 869.115 319.606 871.213 321.012C873.311 322.419 874.303 324.99 873.694 327.442C871.445 336.492 870.745 341.68 871.548 345.204C872.132 347.763 873.703 350.187 879.332 352.792C886.962 354.648 893.268 355.078 900.299 354.144C907.655 353.167 916.026 350.677 927.795 346.359C930.59 345.334 933.714 346.513 935.134 349.129C936.554 351.746 935.841 355.009 933.457 356.793C919.242 367.437 910.335 375.46 905.392 384.183C900.662 392.532 899.223 402.186 901.779 416.957C901.901 417.662 901.892 418.375 901.765 419.064C864.76 387.482 813.955 367.989 757.89 367.989C697.431 367.989 643.088 390.656 605.572 426.709C605.303 426.182 605.108 425.608 605.002 424.999C603.28 415.015 600.096 408.006 594.858 401.485C589.444 394.745 581.696 388.336 570.316 379.783C568.301 378.268 567.448 375.655 568.18 373.244C568.913 370.832 571.076 369.134 573.593 368.997C592.894 367.941 600.82 366.563 608.771 362.61C614.063 356.995 616.894 352.716 618.525 348.489C620.234 344.059 620.831 339.176 620.913 331.926C620.941 329.461 622.475 327.264 624.78 326.387C627.084 325.511 629.691 326.134 631.35 327.958C639.536 336.959 646.387 341.55 653.953 343.931C661.676 346.362 670.719 346.684 683.812 346.012C694.969 344.351 701.555 341.588 706.491 337.581C711.609 333.425 715.544 327.48 720.624 318.131L720.82 317.798C721.846 316.169 723.6 315.123 725.538 315.007C727.605 314.884 729.59 315.836 730.789 317.525C736.453 325.509 740.324 330.584 744.55 333.727C748.255 336.482 752.512 337.928 759.485 337.537C769.152 335.149 774.287 331.987 777.848 327.999C781.704 323.68 784.239 317.878 787.8 308.805L787.89 308.588C788.861 306.374 791.074 304.95 793.506 305Z" fill="#888CB3"/>
<path d="M793.506 305L793.976 282.004L793.974 282.004L793.506 305ZM799.053 309.036L820.788 301.512L820.788 301.511L799.053 309.036ZM805.559 324.889L786.304 337.469L786.305 337.47L805.559 324.889ZM820.725 337.909L808.957 357.67C810.834 358.788 812.861 359.633 814.977 360.179L820.725 337.909ZM839.362 336.74L847.862 358.111L847.862 358.111L839.362 336.74ZM864.324 321.158L850.721 302.612L850.719 302.613L864.324 321.158ZM871.213 321.012L884.023 301.91L884.022 301.909L871.213 321.012ZM873.694 327.442L896.015 332.987L896.016 332.986L873.694 327.442ZM871.548 345.204L849.123 350.315L849.124 350.316L871.548 345.204ZM879.332 352.792L869.676 373.666C871.031 374.293 872.443 374.786 873.894 375.139L879.332 352.792ZM900.299 354.144L903.326 376.944H903.326L900.299 354.144ZM927.795 346.359L919.874 324.766L919.874 324.766L927.795 346.359ZM935.134 349.129L955.35 338.16L955.349 338.158L935.134 349.129ZM933.457 356.793L947.242 375.205L947.243 375.205L933.457 356.793ZM905.392 384.183L885.381 372.845L885.381 372.845L905.392 384.183ZM901.779 416.957L879.116 420.879L879.116 420.879L901.779 416.957ZM901.765 419.064L886.834 436.559C893.087 441.896 901.714 443.489 909.461 440.738C917.208 437.987 922.898 431.311 924.386 423.225L901.765 419.064ZM757.89 367.989V344.989H757.89L757.89 367.989ZM605.572 426.709L585.09 437.173C588.401 443.654 594.584 448.185 601.761 449.391C608.937 450.596 616.261 448.335 621.509 443.292L605.572 426.709ZM605.002 424.999L627.668 421.088L627.668 421.088L605.002 424.999ZM594.858 401.485L612.789 387.081L612.789 387.081L594.858 401.485ZM570.316 379.783L556.496 398.168L556.497 398.169L570.316 379.783ZM568.18 373.244L546.174 366.557L546.173 366.56L568.18 373.244ZM573.593 368.997L572.337 346.031L572.337 346.031L573.593 368.997ZM608.771 362.61L619.01 383.205C621.444 381.995 623.645 380.363 625.509 378.384L608.771 362.61ZM618.525 348.489L639.983 356.769L639.983 356.769L618.525 348.489ZM620.913 331.926L597.914 331.665L597.914 331.667L620.913 331.926ZM624.78 326.387L616.606 304.889L616.605 304.889L624.78 326.387ZM631.35 327.958L648.366 312.483L648.365 312.482L631.35 327.958ZM653.953 343.931L647.049 365.871L647.049 365.871L653.953 343.931ZM683.812 346.012L684.99 368.982C685.729 368.944 686.466 368.871 687.198 368.762L683.812 346.012ZM706.491 337.581L720.988 355.436L720.988 355.436L706.491 337.581ZM720.624 318.131L700.785 306.495C700.658 306.711 700.535 306.929 700.416 307.149L720.624 318.131ZM720.82 317.798L701.358 305.54C701.229 305.746 701.103 305.953 700.98 306.162L720.82 317.798ZM725.538 315.007L724.167 292.048L724.166 292.048L725.538 315.007ZM730.789 317.525L749.547 304.217L749.547 304.216L730.789 317.525ZM744.55 333.727L730.825 352.183L730.826 352.183L744.55 333.727ZM759.485 337.537L760.775 360.5C762.2 360.42 763.615 360.208 765 359.866L759.485 337.537ZM777.848 327.999L795.004 343.318L795.004 343.318L777.848 327.999ZM787.8 308.805L766.553 300C766.497 300.133 766.443 300.267 766.391 300.401L787.8 308.805ZM787.89 308.588L766.824 299.356C766.762 299.498 766.702 299.64 766.642 299.783L787.89 308.588ZM793.506 305L793.037 327.995C785.916 327.849 779.646 323.283 777.319 316.56L799.053 309.036L820.788 301.511C816.817 290.041 806.119 282.252 793.976 282.004L793.506 305ZM799.053 309.036L777.318 316.559C779.186 321.954 781.531 330.164 786.304 337.469L805.559 324.889L824.814 312.309C824.623 312.018 824.305 311.483 823.688 309.87C823.358 309.006 822.992 307.967 822.5 306.529C822.055 305.228 821.424 303.35 820.788 301.512L799.053 309.036ZM805.559 324.889L786.305 337.47C791.388 345.25 798.577 351.489 808.957 357.67L820.725 337.909L832.493 318.148C825.814 314.17 824.821 312.32 824.813 312.309L805.559 324.889ZM820.725 337.909L814.977 360.179C826.72 363.21 837.287 362.318 847.862 358.111L839.362 336.74L830.861 315.368C829.552 315.889 828.959 315.95 828.736 315.965C828.52 315.98 827.892 316.005 826.473 315.638L820.725 337.909ZM839.362 336.74L847.862 358.111C857.802 354.158 867.602 347.278 877.928 339.703L864.324 321.158L850.719 302.613C839.806 310.619 834.516 313.915 830.861 315.368L839.362 336.74ZM864.324 321.158L877.927 339.704C872.156 343.937 864.351 344.103 858.404 340.115L871.213 321.012L884.022 301.909C873.88 295.108 860.565 295.391 850.721 302.612L864.324 321.158ZM871.213 321.012L858.404 340.115C852.452 336.124 849.648 328.838 851.372 321.897L873.694 327.442L896.016 332.986C898.957 321.143 894.17 308.714 884.023 301.91L871.213 321.012ZM873.694 327.442L851.372 321.896C849.324 330.143 846.915 340.627 849.123 350.315L871.548 345.204L893.973 340.092C894.408 341.999 894.106 342.803 894.302 341.226C894.488 339.724 894.966 337.211 896.015 332.987L873.694 327.442ZM871.548 345.204L849.124 350.316C850.174 354.923 852.382 360.017 856.743 364.684C860.658 368.874 865.324 371.653 869.676 373.666L879.332 352.792L888.989 331.917C887.712 331.326 888.777 331.591 890.353 333.278C891.208 334.193 892.051 335.353 892.746 336.729C893.432 338.084 893.789 339.284 893.973 340.091L871.548 345.204ZM879.332 352.792L873.894 375.139C883.921 377.579 893.113 378.3 903.326 376.944L900.299 354.144L897.272 331.344C893.422 331.855 890.002 331.717 884.771 330.444L879.332 352.792ZM900.299 354.144L903.326 376.944C913.299 375.62 923.625 372.388 935.717 367.952L927.795 346.359L919.874 324.766C908.427 328.966 902.011 330.715 897.272 331.344L900.299 354.144ZM927.795 346.359L935.717 367.952C927.796 370.858 918.944 367.515 914.92 360.101L935.134 349.129L955.349 338.158C948.485 325.511 933.384 319.81 919.874 324.766L927.795 346.359ZM935.134 349.129L914.918 360.099C910.897 352.687 912.915 343.442 919.672 338.382L933.457 356.793L947.243 375.205C958.767 366.576 962.211 350.805 955.35 338.16L935.134 349.129ZM933.457 356.793L919.673 338.382C905.482 349.006 892.935 359.513 885.381 372.845L905.392 384.183L925.403 395.522C927.735 391.407 933.002 385.867 947.242 375.205L933.457 356.793ZM905.392 384.183L885.381 372.845C877.234 387.224 875.972 402.714 879.116 420.879L901.779 416.957L924.442 413.034C922.473 401.658 924.089 397.84 925.403 395.521L905.392 384.183ZM901.779 416.957L879.116 420.879C878.76 418.824 878.796 416.799 879.145 414.903L901.765 419.064L924.386 423.225C924.988 419.952 925.042 416.501 924.442 413.034L901.779 416.957ZM901.765 419.064L916.696 401.569C875.392 366.318 819.247 344.989 757.89 344.989V367.989V390.989C808.662 390.989 854.128 408.646 886.834 436.559L901.765 419.064ZM757.89 367.989L757.89 344.989C691.743 344.989 631.614 369.783 589.635 410.125L605.572 426.709L621.509 443.292C654.561 411.529 703.119 390.989 757.89 390.989V367.989ZM605.572 426.709L626.053 416.244C626.818 417.741 627.372 419.373 627.668 421.088L605.002 424.999L582.337 428.909C582.843 431.843 583.787 434.622 585.09 437.173L605.572 426.709ZM605.002 424.999L627.668 421.088C625.349 407.649 620.704 396.934 612.789 387.081L594.858 401.485L576.927 415.889C579.489 419.079 581.211 422.382 582.337 428.909L605.002 424.999ZM594.858 401.485L612.789 387.081C605.367 377.842 595.462 369.91 584.135 361.397L570.316 379.783L556.497 398.169C567.929 406.761 573.521 411.649 576.927 415.889L594.858 401.485ZM570.316 379.783L584.135 361.397C589.845 365.689 592.263 373.093 590.188 379.928L568.18 373.244L546.173 366.56C542.632 378.218 546.757 390.847 556.496 398.168L570.316 379.783ZM568.18 373.244L590.187 379.93C588.111 386.763 581.985 391.572 574.849 391.962L573.593 368.997L572.337 346.031C560.167 346.697 549.715 354.901 546.174 366.557L568.18 373.244ZM573.593 368.997L574.849 391.962C594.301 390.898 606.455 389.447 619.01 383.205L608.771 362.61L598.532 342.015C595.185 343.679 591.487 344.984 572.337 346.031L573.593 368.997ZM608.771 362.61L625.509 378.384C631.955 371.545 636.894 364.773 639.983 356.769L618.525 348.489L597.067 340.208C596.894 340.658 596.17 342.445 592.033 346.836L608.771 362.61ZM618.525 348.489L639.983 356.769C643.175 348.496 643.819 340.346 643.911 332.186L620.913 331.926L597.914 331.667C597.843 338.005 597.293 339.622 597.067 340.209L618.525 348.489ZM620.913 331.926L643.911 332.187C643.832 339.18 639.481 345.404 632.954 347.886L624.78 326.387L616.605 304.889C605.469 309.123 598.049 319.742 597.914 331.665L620.913 331.926ZM624.78 326.387L632.954 347.886C626.427 350.367 619.04 348.606 614.335 343.433L631.35 327.958L648.365 312.482C640.342 303.661 627.742 300.655 616.606 304.889L624.78 326.387ZM631.35 327.958L614.334 343.432C624.325 354.418 634.46 361.909 647.049 365.871L653.953 343.931L660.857 321.992C658.314 321.192 654.748 319.501 648.366 312.483L631.35 327.958ZM653.953 343.931L647.049 365.871C658.967 369.621 671.554 369.671 684.99 368.982L683.812 346.012L682.634 323.042C669.883 323.696 664.385 323.102 660.856 321.992L653.953 343.931ZM683.812 346.012L687.198 368.762C700.733 366.747 711.743 362.942 720.988 355.436L706.491 337.581L691.993 319.725C691.367 320.233 689.204 321.956 680.425 323.263L683.812 346.012ZM706.491 337.581L720.988 355.436C729.914 348.189 735.645 338.661 740.833 329.113L720.624 318.131L700.416 307.149C695.443 316.299 693.305 318.66 691.993 319.725L706.491 337.581ZM720.624 318.131L740.464 329.767L740.659 329.434L720.82 317.798L700.98 306.162L700.785 306.495L720.624 318.131ZM720.82 317.798L740.281 330.056C737.373 334.673 732.408 337.638 726.909 337.966L725.538 315.007L724.166 292.048C714.792 292.608 706.319 297.665 701.358 305.54L720.82 317.798ZM725.538 315.007L726.908 337.966C721.049 338.316 715.426 335.62 712.03 330.834L730.789 317.525L749.547 304.216C743.755 296.052 734.161 291.452 724.167 292.048L725.538 315.007ZM730.789 317.525L712.03 330.833C717.234 338.169 723.147 346.473 730.825 352.183L744.55 333.727L758.275 315.271C757.501 314.696 755.672 312.85 749.547 304.217L730.789 317.525ZM744.55 333.727L730.826 352.183C739.468 358.61 749.242 361.148 760.775 360.5L759.485 337.537L758.194 314.573C756.536 314.666 756.311 314.476 756.867 314.629C756.995 314.664 757.146 314.712 757.312 314.776C757.479 314.84 757.64 314.911 757.79 314.987C757.939 315.062 758.06 315.131 758.147 315.186C758.234 315.24 758.277 315.273 758.275 315.271L744.55 333.727ZM759.485 337.537L765 359.866C777.607 356.751 787.438 351.791 795.004 343.318L777.848 327.999L760.692 312.679C760.642 312.736 760.618 312.756 760.585 312.783C760.547 312.813 760.386 312.936 760.02 313.134C759.244 313.554 757.485 314.339 753.969 315.208L759.485 337.537ZM777.848 327.999L795.004 343.318C802.055 335.422 805.901 325.638 809.21 317.209L787.8 308.805L766.391 300.401C762.577 310.117 761.354 311.938 760.692 312.679L777.848 327.999ZM787.8 308.805L809.048 317.611L809.138 317.394L787.89 308.588L766.642 299.783L766.553 300L787.8 308.805ZM787.89 308.588L808.956 317.821C806.204 324.1 799.936 328.135 793.038 327.995L793.506 305L793.974 282.004C782.211 281.765 771.517 288.649 766.824 299.356L787.89 308.588Z" fill="#23263B" mask="url(#path-8-outside-1_33_2)"/>
<path d="M756.89 246.463V202.97C744.618 206.419 740.097 213.656 736.893 237.464C744.432 244.164 748.824 245.986 756.89 246.463Z" fill="black"/>
<path d="M756.89 246.463V202.97C769.162 206.419 773.682 213.656 776.887 237.464C769.348 244.164 764.956 245.986 756.89 246.463Z" fill="black"/>
<path d="M720.396 246.462C720.396 246.462 743.298 258.611 758.39 260.46C770.699 257.997 777.896 254.585 790.885 247.462" stroke="black" stroke-width="4.99918" stroke-linecap="round"/>
<path d="M741.393 273.458L737.894 255.961L757.89 260.96L773.388 256.461L775.387 268.959L741.393 273.458Z" fill="white" stroke="black" stroke-width="4.99918" stroke-linejoin="round"/>
<path d="M673.384 188.63C676.383 173.633 690.381 154.136 707.878 158.635C747.372 173.633 725.376 228.624 693.881 229.606C679.383 228.124 674.384 209.609 674.384 209.609C674.384 209.609 671.884 203.128 673.384 188.63Z" fill="white" stroke="black" stroke-width="4.99918"/>
<path d="M680.882 193.13C683.381 178.132 691.728 165.588 702.878 168.134C711.877 169.634 719.864 176.58 716.876 197.629C713.376 210.127 707.212 217.778 694.879 219.126C686.881 219.626 679.382 208.627 680.882 193.13Z" fill="black"/>
<path d="M838.599 188.63C835.6 173.633 821.602 154.136 804.105 158.635C764.612 173.633 786.608 228.624 818.103 229.606C832.6 228.124 837.6 209.609 837.6 209.609C837.6 209.609 840.099 203.128 838.599 188.63Z" fill="white" stroke="black" stroke-width="4.99918"/>
<path d="M831.101 193.13C828.601 178.132 820.254 165.588 809.104 168.134C800.106 169.634 792.118 176.58 795.107 197.629C798.606 210.127 804.771 217.778 817.103 219.126C825.102 219.626 832.601 208.627 831.101 193.13Z" fill="black"/>
<circle cx="394.007" cy="778.999" r="26" fill="#385B1B"/>
<ellipse cx="637.007" cy="795.999" rx="26" ry="40" fill="#385B1B"/>
<ellipse cx="1416.01" cy="855.999" rx="26" ry="40" fill="#385B1B"/>
<path d="M981.397 585.598L982.47 594.126L1070.56 608.387L1083.2 696.214L1104.53 692.546C1116.09 690.559 1130.94 688.003 1147.2 689.366C1164.65 690.829 1180.55 696.37 1197.27 705.188L1225.89 720.274C1236.26 717.637 1246.19 716.89 1255 716.876C1267.71 716.855 1281.13 718.46 1291.6 719.598C1313.18 721.944 1331.34 730.847 1344.99 744.586C1349.21 748.833 1352.77 753.308 1355.77 757.833C1364.54 752.009 1376.77 746.371 1391.79 746.371H1393.2L1394.61 746.458C1407.65 747.26 1440.69 751.29 1467.44 763.552L1468.28 763.944C1485.78 772.274 1495.88 786.931 1501.42 797.638C1507.47 809.331 1511.18 822.251 1513.3 834.527C1517.48 858.728 1516.7 887.923 1507.85 914.084L1507.43 915.337L1488.65 961.889C1482.58 981.752 1472.28 1000.12 1457.72 1014.33C1439.04 1032.55 1411.73 1044.88 1380.76 1039.04L1380.51 1038.99L1380.26 1038.94C1365.59 1036.01 1354.25 1033.1 1344.67 1029.21C1334.23 1024.97 1327.34 1020.05 1323.76 1017.61C1318.32 1014.03 1313.55 1010.05 1309.37 1005.76C1302.25 1009.21 1295.14 1010.84 1289.04 1011.53C1272.53 1013.4 1254.59 1009.37 1237.9 1004.35C1228.35 1001.48 1221.28 999.408 1216.09 997.927C1215.9 997.939 1215.73 997.952 1215.56 997.962C1213.03 998.106 1210.92 998.026 1209.52 997.938C1206.78 997.765 1204.4 997.399 1202.87 997.136C1186.46 994.322 1169.19 988.833 1154.59 977.611C1143.48 980.677 1132.82 980.947 1124.08 980.191C1110.58 979.024 1098.4 975.183 1089.15 971.343C1086.02 970.045 1082.93 968.616 1079.94 967.097L1055.55 960.036C1024.67 951.095 1008.79 947.305 978.589 943.491L941.792 938.844L935.601 868.695L929.47 869.39L912.898 945.274L869.438 937.666C816.688 928.43 803.632 928.509 790.367 930.397L715.066 941.112L715.438 940.063C714.093 940.185 712.738 940.269 711.373 940.314L645.931 945.569C635.871 946.377 625.751 946.001 615.779 944.45L595.476 941.291L544.521 935.171C538.3 934.423 518.595 934.588 485.39 943.068L446.996 952.873C437.879 956.127 428.759 958.198 420.603 959.061C413.585 959.91 406.747 960.12 400.119 959.719L400.719 960.896L336.883 969.899C320.06 972.272 309.081 975.893 282.095 985.289L228.361 1004C226.084 1005.08 223.689 1006 221.184 1006.72L187.165 1016.47C156.411 1026.06 128.031 1036.83 118.633 1041.69C105.798 1048.33 90.5887 1048.56 77.5651 1042.29C64.5415 1036.03 55.2181 1024.01 52.3893 1009.84L0.897106 751.885C-3.84674 728.119 10.6611 704.749 34.0641 698.457C58.3637 691.924 90.4153 682.79 117.756 675.902C131.608 672.412 145.285 669.228 157.268 667.03C167.754 665.107 181.891 662.934 194.245 664.083L241.771 668.505L235.597 715.835C235.486 716.688 235.393 717.522 235.316 718.342C245.798 713.817 256.093 710.528 267.292 708.709C279.533 706.72 290.977 706.821 301.733 707.334L303.876 707.441L312.686 707.903C318.08 702.487 324.027 698.023 330.198 694.367C342.376 687.152 355.404 683.089 366.345 680.324C377.217 677.576 389.511 675.314 400.115 673.239L401.359 673.007C413.066 670.916 423.916 671.801 433.661 674.663L434.938 624.251L580.989 603.776L579.408 658.228C579.403 658.378 579.399 658.528 579.395 658.678C580.292 658.111 581.204 657.557 582.129 657.018C598.238 647.63 614.529 644.622 630.025 645.698L634.803 595.35L792.051 604.668L785.288 743.59L846.039 572.707L981.397 585.598ZM189.984 709.885C168.488 707.885 96.8324 729.215 46.0075 742.88L97.4987 1000.84C110.171 994.281 141.488 982.501 174.117 972.357L174.007 972.389L159.489 885.356L228.977 870.358L218.979 814.368L140.492 836.364L132.493 819.367L208.981 795.871C199.816 769.875 185.485 744.379 189.984 709.885ZM1391.79 792.371C1356.29 792.371 1294.3 943.845 1349.29 979.34C1357.46 984.877 1361.61 988.302 1389.29 993.838C1415.78 998.837 1440.28 974.341 1447.28 937.847L1395.78 917.35L1398.28 910.851L1454.01 924.802L1464.27 899.353C1476.18 864.137 1467.61 814.944 1448.72 805.583L1448.28 805.369C1429.08 796.57 1402.62 793.037 1391.79 792.371ZM208.507 962.499C197.392 965.376 185.673 968.765 174.117 972.357L208.507 962.499ZM1286.63 765.329C1240.64 760.33 1211.14 755.83 1188.15 828.818C1204.9 896.809 1207.24 935.243 1210.64 951.798C1222.83 953.888 1187.77 941.254 1251.14 960.297C1280.09 950.475 1261.58 923.546 1295.63 924.802C1302.43 903.206 1304.13 895.974 1306.13 890.308L1256.14 872.311L1265.63 841.816L1322.12 853.814C1321.62 851.315 1327.12 831.318 1327.12 828.818C1327.12 826.336 1332.54 771.199 1287.7 765.455L1286.63 765.329ZM301.464 753.378C280.407 752.273 268.723 753.279 248.473 762.876L266.97 941.846C293.718 932.534 308.624 927.429 330.46 924.349C301.773 868.07 301.609 827.586 301.464 753.378ZM1175.82 745.879C1149.9 732.21 1136.35 733.749 1112.33 737.88L1111.83 740.69C1101.35 800.622 1091.33 917.85 1091.33 917.85C1085.31 899.495 1131.73 918.353 1149.33 930.348C1147.66 882.19 1151.42 773.874 1175.82 745.879ZM783.886 884.856C804.967 881.856 824.306 883.064 877.371 892.354L905.866 761.876L913.865 824.866L962.357 819.367L973.855 778.874L984.353 897.853C1017.6 902.053 1035.92 906.462 1068.34 915.85L1029.85 648.395L977.354 639.896L948.859 695.387L940.361 627.898L877.371 621.899L783.886 884.856ZM464.438 818.867C461.272 782.373 445.741 711.185 408.947 718.384C362.955 727.382 332.46 731.382 333.96 776.874C335.459 822.366 343.958 922.35 415.446 913.351C428.944 912.018 452.923 903.458 460.938 886.856C467.937 872.359 464.938 845.363 464.438 837.864L408.947 841.863V836.364L464.438 818.867ZM669.904 712.385C626.911 674.391 572.921 681.89 572.921 792.871C601.924 846.622 620.655 873.265 593.007 894.354C620.721 864.844 628.846 862.744 622.849 898.996C627.658 871.224 632.588 848.43 640.507 891.999H641.909C663.776 853.185 679.949 870.245 709.038 894.354C721.637 894.354 732.054 884.62 732.969 872.122L733.005 871.525L743.892 647.895L676.403 643.896L669.904 712.385ZM479.936 664.392L485.39 904.499C521.673 895.232 536.099 887.828 550.007 889.499C538.423 885.647 520.086 753.195 533.427 656.893L479.936 664.392Z" fill="#385B1B"/>
<path d="M97.4988 1000.84L46.0073 742.88C96.8323 729.215 168.487 707.885 189.984 709.885C185.484 744.379 199.815 769.875 208.98 795.871L132.493 819.367L140.492 836.364L218.979 814.368L228.977 870.359L159.489 885.356L188.984 969.842C176.649 969.156 114.66 991.96 97.4988 1000.84Z" fill="#90AD38"/>
<path d="M301.465 753.378C280.407 752.273 268.724 753.279 248.474 762.876L266.971 941.847C293.719 932.534 308.624 927.429 330.46 924.349C301.774 868.07 301.61 827.586 301.465 753.378Z" fill="#90AD38"/>
<path d="M479.936 664.392L533.427 656.894C530.666 752.016 524.839 806.022 552.424 896.354C538.515 894.683 521.718 895.586 485.435 904.853L479.936 664.392Z" fill="#90AD38"/>
<path d="M783.886 884.856L877.371 621.899L940.36 627.898L948.859 695.387L977.354 639.896L1029.85 648.395L1068.34 915.851C1035.92 906.463 1017.6 902.053 984.353 897.854L973.855 778.873L962.357 819.367L913.865 824.866L905.866 761.876L877.371 892.355C824.306 883.064 804.967 881.856 783.886 884.856Z" fill="#90AD38"/>
<path d="M1091.33 917.85C1091.33 917.85 1101.67 796.87 1112.33 737.88C1136.35 733.75 1149.9 732.21 1175.82 745.879C1151.42 773.874 1147.66 882.19 1149.33 930.348C1130.83 922.85 1092.79 917.893 1091.33 917.85Z" fill="#90AD38"/>
<path d="M1327.12 828.818C1327.12 831.318 1321.62 851.315 1322.12 853.814L1265.63 841.816L1256.14 872.311L1306.13 890.308C1304.13 895.974 1302.43 903.206 1295.63 924.803C1288.83 946.399 1260.13 960.963 1251.14 960.297C1242.14 959.63 1222.64 954.798 1210.64 951.798C1195.48 948.008 1165.15 901.806 1188.15 828.818C1211.14 755.83 1240.64 760.33 1286.63 765.329C1332.62 770.328 1327.12 826.319 1327.12 828.818Z" fill="#90AD38"/>
<path d="M245.482 672.972C247.033 668.799 250.386 662.403 254.118 663.284C257.836 664.161 263.137 666.968 265.94 668.619C266.376 668.877 266.937 668.777 267.251 668.38L274.523 659.177C274.851 658.763 275.448 658.673 275.843 659.024C278.135 661.057 281.171 665.731 279.17 672.186C279.001 672.731 278.693 673.251 278.265 673.748C288.508 677.121 296.351 684.632 298.521 694.585C302.079 710.9 289.051 727.596 269.421 731.877C249.791 736.158 230.994 726.402 227.436 710.088C225.233 699.988 229.388 689.744 237.529 682.388C231.026 676.79 231.651 672.075 233.076 669.92C233.305 669.574 233.75 669.479 234.136 669.632C237.103 670.815 241.831 672.712 243.99 673.622C244.566 673.865 245.264 673.558 245.482 672.972Z" fill="#303B73"/>
<path d="M1137.71 645.798C1140.55 641.997 1145.95 636.393 1149.52 638.433C1153.08 640.466 1157.69 644.981 1160.04 647.51C1160.39 647.88 1160.95 647.942 1161.37 647.65L1171.69 640.366C1172.12 640.061 1172.72 640.144 1173 640.591C1174.74 643.344 1176.48 649.076 1172.46 655.112C1172.12 655.619 1171.65 656.058 1171.06 656.437C1180.52 662.984 1186.27 673.039 1185.48 683.876C1184.19 701.639 1165.81 714.779 1144.44 713.224C1123.06 711.668 1106.79 696.006 1108.08 678.242C1108.88 667.246 1116.23 658.022 1126.78 652.959C1121.79 645.225 1123.91 640.582 1126.03 638.831C1126.35 638.567 1126.8 638.601 1127.13 638.857C1129.83 640.984 1134.19 644.427 1136.1 645.995C1136.58 646.391 1137.34 646.299 1137.71 645.798Z" fill="#303B73"/>
<path d="M408.947 718.383C445.741 711.185 461.272 782.374 464.438 818.867L408.947 836.364V841.863L464.438 837.863C464.938 845.362 467.937 872.358 460.939 886.856C452.924 903.458 428.943 912.019 415.446 913.352C343.958 922.35 335.459 822.367 333.959 776.874C332.459 731.382 362.955 727.382 408.947 718.383ZM406.447 772.374C405.449 764.376 392.45 760.876 386.451 767.375C374.554 781.996 376.452 790.871 385.45 793.37C394.45 795.87 407.446 780.373 406.447 772.374Z" fill="#90AD38"/>
<path d="M1391.79 792.371C1402.62 793.037 1429.08 796.57 1448.28 805.369C1467.47 814.167 1476.27 863.859 1464.27 899.353L1456.27 926.349L1398.28 910.851L1395.78 917.35L1447.28 937.847C1440.28 974.341 1415.78 998.837 1389.29 993.838C1361.61 988.302 1357.46 984.878 1349.29 979.34C1294.3 943.845 1356.29 792.371 1391.79 792.371ZM1431.24 855.523C1432.1 847.509 1420.25 841.123 1412.92 846.073C1397.99 857.577 1397.8 866.651 1405.99 871.147C1414.18 875.643 1430.38 863.538 1431.24 855.523Z" fill="#90AD38"/>
<path d="M743.892 647.895L733.005 871.525C732.383 884.309 721.837 894.354 709.038 894.354H599.916C577.419 884.356 572.92 854.86 572.92 792.871C572.921 681.89 626.911 674.391 669.904 712.385L676.403 643.895L743.892 647.895ZM637.91 774.374C631.461 766.911 621.779 770.375 621.412 774.374C619.298 797.402 619.912 820.867 625.412 826.366C627.912 828.865 638.573 824.425 641.909 813.368C645.408 796.871 641.366 778.373 637.91 774.374Z" fill="#90AD38"/>
</svg>
