<svg width="1424" height="989" viewBox="0 0 1424 989" fill="none" xmlns="http://www.w3.org/2000/svg">
<path d="M570.292 699.964C598.018 601.667 605.002 555.668 613.427 497.504C613.473 497.189 613.366 496.868 613.14 496.645C570.657 454.677 539.247 397.5 449.5 397.5C364.476 397.5 352.131 353.845 343.493 343.465C342.953 342.816 342.067 343.295 342.113 344.138C354.453 569.639 497.75 675.45 569.032 700.661C569.574 700.853 570.136 700.517 570.292 699.964Z" fill="#4D8523" stroke="#385B1B" stroke-width="12"/>
<path d="M574.007 226C561.207 128.8 631.674 87.1662 668.507 78.4995C622.649 -3.41226 554.008 -16.0004 521.508 43.4996C469.508 146 574.007 226 574.007 226Z" fill="#E7C47C" stroke="#5F3A11" stroke-width="12" stroke-linejoin="round"/>
<path d="M846.508 225.529C859.308 128.329 788.842 86.6955 752.008 78.0288C797.866 -3.88297 866.507 -16.4711 899.007 43.0289C951.007 145.529 846.508 225.529 846.508 225.529Z" fill="#E7C47C" stroke="#5F3A11" stroke-width="12" stroke-linejoin="round"/>
<path d="M698.458 102.962C706.866 101.904 715.38 101.904 723.787 102.962C745.36 105.679 762.353 109.698 776.391 118.817C797.004 132.011 812.807 131.617 821.5 200.824C819.883 216.635 814.393 229.31 809.186 240.665C803.994 251.986 796.364 262.313 784.885 273.217C777.936 279.818 768.807 283.694 758.968 284.998C756.692 280.75 755.449 276.14 753.214 269.168C752.431 266.726 750.18 265.051 747.616 265.001C745.131 264.954 742.883 266.442 741.948 268.727L741.862 268.951C739.286 276.034 737.229 281.323 734.807 285.5H689.73C688.281 283.433 686.728 281.11 685.015 278.502C683.838 276.711 681.795 275.684 679.656 275.807C677.516 275.93 675.605 277.185 674.641 279.099C673.474 281.418 672.363 283.544 671.287 285.5H670.921C645.038 286.89 630.487 276.515 610.5 244C605.293 232.645 604.95 216.635 603.332 200.824C602.712 194.757 601.509 185.847 603.332 180C613.352 141.014 620.167 121.899 645.854 118.817C659.892 109.698 676.886 105.679 698.458 102.962Z" fill="#E7C47C"/>
<path d="M734.806 285.5C733.879 287.1 732.898 288.537 731.813 289.848C729.339 292.84 726.141 295.376 721.268 297.5H700.857C700.16 297.067 699.489 296.588 698.834 296.062C695.867 293.68 693.073 290.272 689.729 285.5H734.806ZM712 89.4998C740 92.3054 763.395 96.0657 782.928 108.755C802.721 121.612 817.263 143.032 828.525 179.136C830.824 186.508 831.639 194.339 830.85 202.046C829.153 218.638 826.033 232.715 820.094 245.667C814.138 258.653 805.494 270.191 793.15 281.917C785.959 288.748 777.201 293.158 767.931 295.486C763.955 292.226 761.526 289.31 759.787 286.436C759.498 285.96 759.226 285.481 758.968 284.998C768.807 283.694 777.936 279.818 784.885 273.217C796.364 262.312 803.994 251.986 809.186 240.665C814.394 229.31 817.295 216.636 818.913 200.824C819.534 194.757 818.894 188.556 817.07 182.71C806.261 148.059 792.955 129.577 776.391 118.817C762.353 109.698 745.359 105.68 723.787 102.963C715.38 101.904 706.866 101.904 698.459 102.963C676.886 105.68 659.892 109.698 645.854 118.817C629.291 129.577 615.984 148.059 605.176 182.71C603.352 188.556 602.712 194.757 603.333 200.824C604.951 216.636 607.852 229.31 613.059 240.665C618.251 251.986 625.882 262.313 637.36 273.217C646.082 281.502 658.237 285.5 670.922 285.5H671.286C668.645 290.298 666.194 294.069 663.519 297.11C650.931 295.78 638.634 290.978 629.095 281.917C616.751 270.191 608.108 258.653 602.152 245.667C596.212 232.715 593.093 218.638 591.395 202.046C590.607 194.339 591.421 186.508 593.72 179.136C604.983 143.032 619.525 121.612 639.317 108.755C658.85 96.0657 681.999 92.3054 710 89.4998H712Z" fill="#5F3A11"/>
<path d="M742.23 264.809C745.095 262.176 749.599 262.381 752.208 265.333L767.719 282.884L775.313 279.912C778.399 278.704 781.88 280.227 783.088 283.313C784.295 286.399 782.772 289.88 779.687 291.088L768.837 295.333C766.101 296.403 762.987 295.651 761.041 293.449L754.61 286.172C750.379 281.384 742.972 281.197 738.504 285.764L729.083 295.395C727.766 296.741 725.962 297.5 724.079 297.5H698.362C696.725 297.5 695.139 296.926 693.881 295.878L687.509 290.568C683.297 287.058 677.143 287.185 673.08 290.867L668.314 295.186C667.027 296.353 665.352 297 663.614 297H663C659.686 297 657 294.313 657 291C657 288.216 658.896 285.874 661.468 285.197L675.327 272.637L675.573 272.425C678.073 270.361 681.671 270.286 684.254 272.244L684.509 272.447L700.172 285.5H721.977L741.959 265.073L742.23 264.809Z" fill="#5F3A11"/>
<path d="M711 395C821.745 395 910 472.565 910 566.5C910 660.434 821.745 738 711 738C600.255 738 512 660.434 512 566.5C512 472.565 600.255 395 711 395Z" fill="#575D8A" stroke="#23263B" stroke-width="12"/>
<path d="M747.622 302.001C750.134 302.053 752.348 303.663 753.17 306.037C755.675 313.275 756.902 317.647 759.677 321.894C762.223 325.79 766.315 329.836 774.845 334.916C781.712 336.689 787.294 336.209 793.486 333.746C800.284 331.042 807.83 325.954 818.451 318.162C820.489 316.668 823.244 316.61 825.342 318.017C827.44 319.424 828.432 321.995 827.823 324.447C825.575 333.498 824.874 338.687 825.677 342.211C826.261 344.771 827.832 347.197 833.462 349.801C841.093 351.658 847.4 352.087 854.433 351.154C861.79 350.177 870.163 347.686 881.934 343.367C884.729 342.342 887.854 343.522 889.274 346.139C890.693 348.756 889.979 352.019 887.596 353.803C873.378 364.448 864.47 372.473 859.527 381.198C854.795 389.548 853.356 399.204 855.912 413.977C856.034 414.682 856.025 415.395 855.899 416.083C818.887 384.496 768.074 365 712 365C651.531 365 597.178 387.67 559.656 423.729C559.388 423.203 559.192 422.629 559.087 422.021C557.364 412.036 554.181 405.025 548.942 398.502C543.527 391.762 535.777 385.351 524.396 376.796C522.38 375.281 521.526 372.668 522.259 370.256C522.992 367.844 525.155 366.147 527.672 366.009C546.977 364.953 554.904 363.574 562.857 359.62C568.149 354.005 570.981 349.726 572.613 345.498C574.322 341.068 574.918 336.184 575 328.933L575.008 328.702C575.125 326.331 576.634 324.241 578.867 323.392C581.173 322.515 583.78 323.139 585.44 324.963C593.627 333.966 600.479 338.558 608.046 340.939C615.77 343.369 624.815 343.692 637.909 343.021C649.068 341.36 655.655 338.595 660.592 334.587C665.711 330.431 669.647 324.485 674.729 315.135L674.924 314.802C675.951 313.172 677.704 312.127 679.643 312.011C681.71 311.888 683.695 312.839 684.894 314.529C690.559 322.514 694.431 327.589 698.657 330.733C702.362 333.488 706.621 334.935 713.594 334.543C723.263 332.155 728.399 328.993 731.961 325.004C735.818 320.685 738.353 314.882 741.915 305.808L742.005 305.591C742.976 303.376 745.189 301.952 747.622 302.001Z" fill="#888CB3"/>
<path d="M747.622 302.001L747.745 296.003L747.744 296.002L747.622 302.001ZM753.17 306.037L758.84 304.075L758.84 304.075L753.17 306.037ZM759.677 321.894L754.654 325.176L754.654 325.176L759.677 321.894ZM774.845 334.916L771.775 340.071C772.265 340.363 772.794 340.583 773.346 340.726L774.845 334.916ZM793.486 333.746L795.703 339.322L795.703 339.322L793.486 333.746ZM818.451 318.162L814.903 313.324L814.902 313.325L818.451 318.162ZM825.342 318.017L828.684 313.034L828.684 313.034L825.342 318.017ZM827.823 324.447L833.646 325.893L833.647 325.893L827.823 324.447ZM825.677 342.211L819.827 343.544L819.827 343.545L825.677 342.211ZM833.462 349.801L830.943 355.247C831.296 355.41 831.665 355.539 832.043 355.631L833.462 349.801ZM854.433 351.154L855.222 357.101H855.222L854.433 351.154ZM881.934 343.367L879.867 337.735L879.867 337.735L881.934 343.367ZM889.274 346.139L894.548 343.278L894.547 343.277L889.274 346.139ZM887.596 353.803L891.192 358.606L891.192 358.606L887.596 353.803ZM859.527 381.198L854.306 378.24L854.306 378.24L859.527 381.198ZM855.912 413.977L861.824 412.954L861.824 412.954L855.912 413.977ZM855.899 416.083L852.004 420.647C853.635 422.04 855.886 422.455 857.907 421.737C859.928 421.019 861.413 419.277 861.8 417.167L855.899 416.083ZM712 365V359V359V365ZM559.656 423.729L554.313 426.458C555.177 428.149 556.789 429.331 558.662 429.646C560.534 429.961 562.445 429.371 563.814 428.055L559.656 423.729ZM559.087 422.021L553.174 423.041L553.175 423.042L559.087 422.021ZM548.942 398.502L553.619 394.745L553.619 394.745L548.942 398.502ZM524.396 376.796L528.001 372L528.001 372L524.396 376.796ZM522.259 370.256L516.518 368.512L516.518 368.512L522.259 370.256ZM527.672 366.009L527.344 360.018L527.344 360.018L527.672 366.009ZM562.857 359.62L565.528 364.993C566.163 364.677 566.737 364.252 567.223 363.735L562.857 359.62ZM572.612 345.498L578.21 347.659L578.21 347.658L572.612 345.498ZM575 328.933L569.004 328.73C569.002 328.775 569.001 328.82 569.001 328.865L575 328.933ZM575.008 328.702L569.015 328.406C569.014 328.437 569.013 328.468 569.011 328.499L575.008 328.702ZM578.867 323.392L576.735 317.784L576.735 317.784L578.867 323.392ZM585.44 324.963L581.001 329L581.001 329L585.44 324.963ZM608.046 340.939L606.245 346.662L606.245 346.662L608.046 340.939ZM637.909 343.021L638.217 349.013C638.41 349.003 638.602 348.984 638.793 348.955L637.909 343.021ZM660.592 334.587L664.374 339.245L664.374 339.245L660.592 334.587ZM674.729 315.135L669.553 312.1C669.52 312.156 669.488 312.213 669.457 312.27L674.729 315.135ZM674.924 314.802L669.847 311.604C669.813 311.658 669.781 311.712 669.749 311.767L674.924 314.802ZM679.643 312.011L679.286 306.022L679.285 306.022L679.643 312.011ZM684.894 314.529L689.787 311.057L689.787 311.057L684.894 314.529ZM698.657 330.733L695.077 335.547L695.077 335.547L698.657 330.733ZM713.594 334.543L713.93 340.534C714.302 340.513 714.671 340.457 715.033 340.368L713.594 334.543ZM731.961 325.004L736.436 329.001L736.437 329.001L731.961 325.004ZM741.915 305.808L736.372 303.511C736.358 303.546 736.344 303.581 736.33 303.616L741.915 305.808ZM742.005 305.591L736.509 303.183C736.493 303.22 736.478 303.257 736.462 303.294L742.005 305.591ZM747.622 302.001L747.5 308L747.5 308L753.17 306.037L758.84 304.075C757.196 299.326 752.768 296.105 747.745 296.003L747.622 302.001ZM753.17 306.037L747.5 308C749.839 314.757 751.358 320.131 754.654 325.176L759.677 321.894L764.7 318.612C762.447 315.163 761.512 311.793 758.84 304.075L753.17 306.037ZM759.677 321.894L754.654 325.176C757.862 330.085 762.761 334.703 771.775 340.071L774.845 334.916L777.915 329.761C769.868 324.969 766.584 321.496 764.7 318.612L759.677 321.894ZM774.845 334.916L773.346 340.726C781.485 342.827 788.368 342.239 795.703 339.322L793.486 333.746L791.268 328.171C786.22 330.179 781.938 330.55 776.344 329.107L774.845 334.916ZM793.486 333.746L795.703 339.322C803.321 336.291 811.455 330.736 822 323L818.451 318.162L814.902 313.325C804.204 321.173 797.247 325.793 791.268 328.171L793.486 333.746ZM818.451 318.162L822 323L822 323L825.342 318.017L828.684 313.034C824.487 310.219 818.977 310.336 814.903 313.324L818.451 318.162ZM825.342 318.017L822 323L822 323L827.823 324.447L833.647 325.893C834.864 320.989 832.88 315.848 828.684 313.034L825.342 318.017ZM827.823 324.447L822 323C819.804 331.841 818.657 338.412 819.827 343.544L825.677 342.211L831.527 340.878C831.09 338.962 831.345 335.155 833.646 325.893L827.823 324.447ZM825.677 342.211L819.827 343.545C820.317 345.693 821.291 347.943 823.293 350.086C825.179 352.104 827.727 353.759 830.943 355.247L833.462 349.801L835.981 344.356C833.568 343.239 832.515 342.379 832.062 341.893C831.724 341.533 831.621 341.29 831.527 340.877L825.677 342.211ZM833.462 349.801L832.043 355.631C840.3 357.64 847.36 358.145 855.222 357.101L854.433 351.154L853.643 345.206C847.44 346.029 841.886 345.676 834.881 343.971L833.462 349.801ZM854.433 351.154L855.222 357.101C863.262 356.034 872.145 353.35 884 349L881.934 343.367L879.867 337.735C868.181 342.022 860.318 344.32 853.643 345.206L854.433 351.154ZM881.934 343.367L884 349L884 349L889.274 346.139L894.547 343.277C891.707 338.043 885.458 335.684 879.867 337.735L881.934 343.367ZM889.274 346.139L884 349L884 349L887.596 353.803L891.192 358.606C895.959 355.037 897.387 348.512 894.548 343.278L889.274 346.139ZM887.596 353.803L884 349C869.788 359.64 859.931 368.313 854.306 378.24L859.527 381.198L864.747 384.155C869.009 376.633 876.968 369.255 891.192 358.606L887.596 353.803ZM859.527 381.198L854.306 378.24C848.684 388.163 847.29 399.341 850 415L855.912 413.977L861.824 412.954C859.421 399.066 860.907 390.933 864.747 384.155L859.527 381.198ZM855.912 413.977L850 415C849.999 414.992 849.999 414.988 849.999 414.988C849.999 414.987 849.999 414.991 849.997 415L855.899 416.083L861.8 417.167C862.05 415.806 862.071 414.38 861.824 412.954L855.912 413.977ZM855.899 416.083L859.794 411.519C821.661 378.975 769.455 359 712 359V365L712 371C766.693 371 816.114 390.017 852.004 420.647L855.899 416.083ZM712 365V359C650.047 359 594.185 382.225 555.499 419.403L559.656 423.729L563.814 428.055C600.171 393.116 653.015 371 712 371V365ZM559.656 423.729L565 421L565 421L559.087 422.021L553.175 423.042C553.385 424.26 553.777 425.408 554.313 426.458L559.656 423.729ZM559.087 422.021L565 421.001C563.122 410.115 559.557 402.137 553.619 394.745L548.942 398.502L544.264 402.26C548.805 407.913 551.607 413.957 553.174 423.041L559.087 422.021ZM548.942 398.502L553.619 394.745C547.681 387.352 539.369 380.544 528.001 372L524.396 376.796L520.791 381.592C532.186 390.157 539.373 396.171 544.264 402.26L548.942 398.502ZM524.396 376.796L528.001 372L528 372L522.259 370.256L516.518 368.512C515.052 373.338 516.761 378.564 520.791 381.592L524.396 376.796ZM522.259 370.256L528 372L528 372L527.672 366.009L527.344 360.018C522.309 360.294 517.984 363.687 516.518 368.512L522.259 370.256ZM527.672 366.009L528 372C547.344 370.942 556.374 369.544 565.528 364.993L562.857 359.62L560.186 354.248C553.434 357.604 546.609 358.964 527.344 360.018L527.672 366.009ZM562.857 359.62L567.223 363.735C572.816 357.801 576.198 352.872 578.21 347.659L572.612 345.498L567.015 343.338C565.764 346.58 563.482 350.209 558.49 355.505L562.857 359.62ZM572.612 345.498L578.21 347.658C580.307 342.225 580.915 336.488 581 329.001L575 328.933L569.001 328.865C568.921 335.879 568.338 339.911 567.015 343.338L572.612 345.498ZM575 328.933L580.997 329.136L581.005 328.906L575.008 328.702L569.011 328.499L569.004 328.73L575 328.933ZM575.008 328.702L581.001 328.999C581.001 328.998 581.001 328.998 581.001 328.999C581 328.999 581 329 581 329.001C581 329.001 581 329.001 581.001 328.999C581.002 328.998 581.002 328.998 581.001 328.999C581 329 580.999 329 580.999 329.001C580.998 329.001 580.998 329.001 581 329L578.867 323.392L576.735 317.784C572.267 319.483 569.25 323.662 569.015 328.406L575.008 328.702ZM578.867 323.392L581 329L581.001 329L585.44 324.963L589.879 320.926C586.559 317.277 581.345 316.031 576.735 317.784L578.867 323.392ZM585.44 324.963L581.001 329C589.659 338.521 597.368 343.869 606.245 346.662L608.046 340.939L609.847 335.215C603.591 333.247 597.595 329.412 589.879 320.926L585.44 324.963ZM608.046 340.939L606.245 346.662C615.064 349.437 625.032 349.689 638.217 349.013L637.909 343.021L637.602 337.029C624.597 337.696 616.477 337.302 609.847 335.215L608.046 340.939ZM637.909 343.021L638.793 348.955C650.572 347.202 658.313 344.166 664.374 339.245L660.592 334.587L656.81 329.929C652.998 333.025 647.564 335.518 637.026 337.086L637.909 343.021ZM660.592 334.587L664.374 339.245C670.486 334.282 674.891 327.403 680.001 318L674.729 315.135L669.457 312.27C664.404 321.568 660.937 326.579 656.81 329.929L660.592 334.587ZM674.729 315.135L679.904 318.171L680.1 317.838L674.924 314.802L669.749 311.767L669.553 312.1L674.729 315.135ZM674.924 314.802L680.001 318L680 318L679.643 312.011L679.285 306.022C675.408 306.253 671.9 308.344 669.847 311.604L674.924 314.802ZM679.643 312.011L680 318L680 318L684.894 314.529L689.787 311.057C687.39 307.678 683.42 305.775 679.286 306.022L679.643 312.011ZM684.894 314.529L680 318C685.545 325.817 689.95 331.734 695.077 335.547L698.657 330.733L702.238 325.918C698.912 323.444 695.572 319.211 689.787 311.057L684.894 314.529ZM698.657 330.733L695.077 335.547C700.07 339.26 705.768 340.992 713.93 340.534L713.594 334.543L713.257 328.553C707.474 328.878 704.655 327.715 702.238 325.918L698.657 330.733ZM713.594 334.543L715.033 340.368C725.469 337.79 731.83 334.159 736.436 329.001L731.961 325.004L727.486 321.008C724.969 323.826 721.058 326.519 712.155 328.718L713.594 334.543ZM731.961 325.004L736.437 329.001C741.127 323.748 744.004 316.907 747.5 308L741.915 305.808L736.33 303.616C732.702 312.857 730.509 317.622 727.486 321.008L731.961 325.004ZM741.915 305.808L747.458 308.105L747.548 307.888L742.005 305.591L736.462 303.294L736.372 303.511L741.915 305.808ZM742.005 305.591L747.501 307.999C747.501 307.998 747.501 307.998 747.501 307.999C747.5 308 747.5 308 747.499 308.001C747.499 308.001 747.499 308.001 747.501 308C747.502 307.999 747.502 307.999 747.501 307.999C747.5 308 747.499 308 747.499 308C747.498 308 747.498 308 747.5 308L747.622 302.001L747.744 296.002C742.877 295.903 738.451 298.752 736.509 303.183L742.005 305.591Z" fill="#23263B"/>
<path d="M711 226.5V183C698.726 186.45 694.205 193.688 691 217.5C698.54 224.201 702.933 226.023 711 226.5Z" fill="black"/>
<path d="M711 226.5V183C723.274 186.45 727.795 193.688 731 217.5C723.46 224.201 719.067 226.023 711 226.5Z" fill="black"/>
<path d="M674.5 226.5C674.5 226.5 697.405 238.651 712.5 240.5C724.811 238.037 732.009 234.623 745 227.5" stroke="black" stroke-width="5" stroke-linecap="round"/>
<path d="M695.5 253.5L692 236L712 241L727.5 236.5L729.5 249L695.5 253.5Z" fill="white" stroke="black" stroke-width="5" stroke-linejoin="round"/>
<path d="M627.479 168.658C630.479 153.658 644.479 134.158 661.979 138.658C701.479 153.658 679.479 208.658 647.979 209.64C633.479 208.158 628.479 189.64 628.479 189.64C628.479 189.64 625.979 183.158 627.479 168.658Z" fill="white" stroke="black" stroke-width="5"/>
<path d="M634.979 173.158C637.479 158.158 645.828 145.612 656.979 148.158C665.979 149.658 673.968 156.606 670.979 177.658C667.479 190.158 661.314 197.81 648.979 199.158C640.979 199.658 633.479 188.658 634.979 173.158Z" fill="black"/>
<path d="M792.722 168.658C789.723 153.658 775.723 134.158 758.222 138.658C718.722 153.658 740.722 208.658 772.222 209.64C786.722 208.158 791.722 189.64 791.722 189.64C791.722 189.64 794.222 183.158 792.722 168.658Z" fill="white" stroke="black" stroke-width="5"/>
<path d="M785.222 173.158C782.722 158.158 774.374 145.612 763.222 148.158C754.222 149.658 746.233 156.606 749.222 177.658C752.722 190.158 758.888 197.81 771.222 199.158C779.222 199.658 786.722 188.658 785.222 173.158Z" fill="black"/>
<path d="M931 607.5C940.349 576.93 935.847 558.062 935.518 546.791C935.499 546.136 936.136 545.668 936.77 545.829C1030.12 569.611 1098.44 493.647 1121 452.5C1141.29 415.5 1224.5 378.5 1259 406.5C1350.7 480.92 1179.5 617 1151 626.5C1128.2 634.1 1115.83 628 1112.5 624C1105.67 615.667 1100.8 598 1136 594C1171.2 590 1223.33 523.667 1245 491C1286.5 414.5 1184.5 405.5 1154 466C1099.2 588.4 921.285 639.267 931 607.5Z" fill="#BB7F78" stroke="#B4665C" stroke-width="12"/>
<path d="M137.386 703.994C135.388 734.287 146.912 758.355 155.182 780.125L84.7383 801.764C83.0757 802.275 81.7163 803.482 81.0127 805.073C80.3092 806.663 80.3308 808.481 81.0713 810.054L89.0713 827.054C90.3188 829.705 93.2981 831.068 96.1191 830.277L168.255 810.06L176.076 853.856L112.234 867.635C110.553 867.998 109.108 869.065 108.267 870.565C107.426 872.065 107.268 873.854 107.835 875.477L134.872 952.923C131.799 953.539 128.206 954.436 124.3 955.526C116.314 957.754 106.737 960.864 97.0752 964.251C81.9468 969.554 66.2544 975.662 55.8789 980.288L6.98145 735.328C31.3535 728.715 59.4372 720.749 84.4658 714.443C97.896 711.059 110.313 708.189 120.66 706.292C127.421 705.052 133.044 704.28 137.386 703.994Z" fill="#FAE4A2" stroke="#5A3710" stroke-width="12" stroke-linejoin="round"/>
<path d="M229.659 748.158C235.68 747.181 241.853 746.99 249.514 747.243C249.664 814.753 250.436 855.324 275.517 907.852C259.083 910.772 245.571 915.138 226.188 921.846L208.91 754.663C216.856 751.155 223.279 749.195 229.659 748.158Z" fill="#FAE4A2" stroke="#5A3710" stroke-width="12"/>
<path d="M364.152 712.388C371.08 711.032 377.072 713.208 382.659 718.42C388.439 723.812 393.526 732.281 397.818 742.656C405.644 761.574 410.152 785.148 412.055 802.74L361.196 818.777L357 820.101V836.447L363.432 835.984L412.971 832.413C413.28 836.624 413.601 842.036 413.562 847.835C413.501 857.227 412.473 866.433 409.597 872.392C406.399 879.016 399.713 884.528 391.604 888.62C383.566 892.676 374.91 894.936 368.91 895.528L368.83 895.536L368.751 895.547C352.431 897.601 340.145 893.455 330.592 885.707C320.846 877.803 313.528 865.798 308.107 851.553C297.241 822.998 294.745 787.498 293.997 764.802C293.643 754.069 295.198 746.334 298.012 740.557C300.784 734.864 304.991 730.634 310.746 727.225C316.611 723.75 324.044 721.153 333.135 718.856C342.235 716.556 352.536 714.661 364.152 712.388Z" fill="#FAE4A2" stroke="#5A3710" stroke-width="12"/>
<path d="M481.287 651.929C478.559 739.629 473.844 793.587 498.266 877.867C485.987 877.494 470.551 879.271 445.326 885.369L440.12 657.701L481.287 651.929Z" fill="#FAE4A2" stroke="#5A3710" stroke-width="12"/>
<path d="M691.718 641.637L681.119 859.375C680.652 868.964 672.741 876.5 663.141 876.5H555.342C547.037 872.388 541.437 864.571 537.896 849.847C534.146 834.248 533 812.034 533 781C533 725.821 546.524 699.308 562.396 690.058C577.842 681.057 599.177 686.57 620.027 704.996L628.859 712.802L629.974 701.066L635.926 638.331L691.718 641.637Z" fill="#FAE4A2" stroke="#5A3710" stroke-width="12"/>
<path d="M889.146 621.516L897.047 684.25L899.472 703.506L908.337 686.241L934.845 634.619L978.689 641.718L1015.24 895.683C989.338 888.359 971.69 884.34 944.053 880.67L933.977 766.472L922.229 765.361L911.827 801.991L873.206 806.37L865.952 749.244L854.138 748.719L826.863 873.606C785.393 866.477 765.069 864.553 746.863 865.979L835.586 616.416L889.146 621.516Z" fill="#FAE4A2" stroke="#5A3710" stroke-width="12"/>
<path d="M1045.5 906C1045.5 906 1055.83 785 1066.5 726C1090.52 721.869 1104.07 720.329 1130 734C1105.6 762 1101.83 870.333 1103.5 918.5C1085 911 1046.96 906.043 1045.5 906Z" fill="#FAE4A2" stroke="#5A3710" stroke-width="12"/>
<path d="M1209.27 757C1218.46 756.985 1228.55 758.153 1240.18 759.418C1250.36 760.525 1257.36 764.379 1262.31 769.361C1267.34 774.433 1270.56 780.983 1272.57 787.827C1276.63 801.698 1275.33 815.092 1275.33 816.953C1275.33 816.609 1275.36 816.642 1275.2 817.529C1275.07 818.22 1274.87 819.138 1274.62 820.25C1274.12 822.482 1273.46 825.228 1272.8 828.09C1272.27 830.357 1271.74 832.686 1271.3 834.752L1221.07 824.084L1215.72 822.948L1214.1 828.169L1204.6 858.669L1202.89 864.153L1208.29 866.098L1252.85 882.139C1252.34 883.852 1251.78 885.783 1251.12 888.045C1249.6 893.238 1247.49 900.404 1244.1 911.151C1241.28 920.138 1233.62 928.212 1225.01 934.1C1220.78 936.993 1216.53 939.211 1212.91 940.646C1209.06 942.172 1206.62 942.533 1205.77 942.469C1197.42 941.851 1178.57 937.205 1166.28 934.133H1166.28C1164.44 933.673 1160.75 931.351 1156.44 925.744C1152.3 920.364 1148.11 912.602 1144.99 902.618C1138.78 882.709 1136.89 854.161 1148.05 818.756C1159.4 782.741 1171.82 767.691 1185.46 761.402C1192.4 758.205 1200.17 757.015 1209.27 757Z" fill="#FAE4A2" stroke="#5A3710" stroke-width="12"/>
<path d="M1345.85 786.501C1356.52 787.184 1381.91 790.661 1400 798.954C1403.08 800.364 1406.42 803.79 1409.46 809.665C1412.44 815.432 1414.81 822.956 1416.29 831.507C1419.25 848.656 1418.45 868.926 1412.82 885.579L1412.78 885.686L1412.75 885.795L1406.41 907.194L1354.05 893.203L1348.84 891.81L1346.9 896.845L1344.4 903.346L1342.27 908.881L1347.78 911.075L1394.56 929.694C1390.87 944.774 1384.02 957.075 1375.62 965.268C1366.41 974.261 1355.56 978.164 1344.63 976.107C1330.93 973.365 1323.42 971.214 1318.44 969.191C1313.6 967.226 1311.03 965.354 1306.87 962.533L1306.81 962.495L1306.75 962.458L1306.22 962.106C1295.08 954.607 1289.21 940.884 1287.93 922.878C1286.63 904.668 1290.15 883.181 1296.55 862.457C1302.93 841.761 1312.06 822.269 1321.62 808.08C1326.41 800.973 1331.18 795.396 1335.6 791.662C1340.03 787.914 1343.48 786.558 1345.85 786.501Z" fill="#FAE4A2" stroke="#5A3710" stroke-width="12"/>
<path d="M207.665 682.025C208.895 678.825 211.406 674.194 214.192 674.852C216.969 675.507 220.895 677.564 223.087 678.842C223.524 679.097 224.085 678.997 224.399 678.6L229.715 671.873C230.043 671.458 230.641 671.368 231.026 671.731C232.761 673.363 234.906 676.88 233.417 681.683C233.287 682.101 233.051 682.5 232.723 682.882C240.584 685.47 246.601 691.235 248.267 698.872C250.997 711.392 240.999 724.204 225.936 727.489C210.872 730.774 196.448 723.288 193.717 710.768C192.027 703.018 195.215 695.157 201.462 689.512C196.604 685.331 196.93 681.791 197.96 680.08C198.174 679.725 198.622 679.629 199.007 679.783C201.176 680.647 204.451 681.962 206.163 682.677C206.74 682.918 207.441 682.609 207.665 682.025Z" fill="#6170B9"/>
<path d="M1090.21 659.529C1092.29 656.808 1096.01 653.079 1098.5 654.5C1100.98 655.915 1104.16 659.001 1105.9 660.847C1106.25 661.216 1106.81 661.279 1107.23 660.987L1114.23 656.043C1114.66 655.738 1115.26 655.821 1115.53 656.278C1116.73 658.335 1117.79 662.316 1115 666.5C1114.76 666.864 1114.42 667.18 1114 667.453C1120.8 672.163 1124.94 679.396 1124.37 687.193C1123.44 699.973 1110.22 709.426 1094.84 708.307C1079.47 707.188 1067.75 695.92 1068.68 683.14C1069.26 675.229 1074.55 668.594 1082.14 664.951C1078.66 659.564 1079.98 656.261 1081.45 654.913C1081.76 654.633 1082.21 654.668 1082.54 654.925C1084.38 656.369 1087.14 658.557 1088.58 659.728C1089.07 660.123 1089.83 660.025 1090.21 659.529Z" fill="#6170B9"/>
<path d="M339.499 781.5C330.498 779 328.6 770.123 340.5 755.5C346.5 749 359.5 752.5 360.499 760.5C361.498 768.5 348.5 784 339.499 781.5Z" fill="black" stroke="#5A3710" stroke-width="12"/>
<path d="M1360.21 859.289C1352.02 854.792 1352.21 845.716 1367.14 834.211C1374.47 829.259 1386.32 835.647 1385.46 843.663C1384.6 851.678 1368.4 863.785 1360.21 859.289Z" fill="black" stroke="#5A3710" stroke-width="12"/>
<path d="M575.5 762.5C575.867 758.5 585.549 755.035 592 762.5C595.456 766.5 599.5 785 596 801.5C592.663 812.559 582 817 579.5 814.5C573.999 809 573.385 785.532 575.5 762.5Z" fill="black" stroke="#5A3710" stroke-width="12"/>
</svg>
